<?xml version="1.0" encoding="utf-8"?>
<!-- Generator: Adobe Illustrator 22.1.0, SVG Export Plug-In . SVG Version: 6.00 Build 0)  -->
<svg version="1.1" id="Слой_1" xmlns="http://www.w3.org/2000/svg" xmlns:xlink="http://www.w3.org/1999/xlink" x="0px" y="0px"
	 viewBox="0 0 203 208" style="enable-background:new 0 0 203 208;" xml:space="preserve">
<style type="text/css">
	.st0{fill:#FF7300;}
	.st1{fill:#FFFFFF;}
	.st2{fill:#FFFFFF;stroke:#000000;stroke-width:2;stroke-miterlimit:10;}
	.st3{fill:none;stroke:#000000;stroke-width:2;stroke-miterlimit:10;}
	.st4{fill:none;stroke:#000000;stroke-width:2;stroke-linejoin:bevel;stroke-miterlimit:10;}
	.st5{fill:#FF7300;stroke:#000000;stroke-width:0.75;stroke-linejoin:bevel;stroke-miterlimit:10;}
	.st6{fill:#FF7300;stroke:#000000;stroke-width:2;stroke-linejoin:bevel;stroke-miterlimit:10;}
	.st7{stroke:#000000;stroke-width:2;stroke-linejoin:bevel;stroke-miterlimit:10;}
	.st8{fill:none;stroke:#000000;stroke-linejoin:bevel;stroke-miterlimit:10;}
	.st9{fill:none;stroke:#000000;stroke-width:8;stroke-linejoin:bevel;stroke-miterlimit:10;}
	.st10{fill:none;stroke:#000000;stroke-width:3;stroke-linejoin:bevel;stroke-miterlimit:10;}
	.st11{fill:#FF7300;stroke:#000000;stroke-linejoin:bevel;stroke-miterlimit:10;}
	.st12{stroke:#000000;stroke-linejoin:bevel;stroke-miterlimit:10;}
	.st13{stroke:#000000;stroke-width:2;stroke-miterlimit:10;}
	.st14{fill:none;stroke:#000000;stroke-width:5;stroke-linejoin:bevel;stroke-miterlimit:10;}
	.st15{stroke:#000000;stroke-width:3;stroke-linejoin:bevel;stroke-miterlimit:10;}
	.st16{clip-path:url(#SVGID_2_);}
	.st17{fill:#020100;stroke:#000000;stroke-linejoin:bevel;stroke-miterlimit:10;}
	.st18{fill:#FFFFFF;stroke:#000000;stroke-width:2;stroke-linejoin:bevel;stroke-miterlimit:10;}
	.st19{display:none;}
	.st20{display:inline;}
	.st21{fill:#FFFFFF;stroke:#000000;stroke-miterlimit:10;}
	.st22{display:none;fill:#FFFFFF;stroke:#000000;stroke-miterlimit:10;}
</style>
<g id="Слой_2_1_">
</g>
<rect x="11" y="22" class="st22" width="167.5" height="167.5"/>
<path d="M183,191.5H6.5V41.2c0-14.7,11.3-26.7,25.2-26.7h137.8v143.8H62c-11.1,0-20.1-9.5-20.1-21.2V83.3c0-14.3,11-25.9,24.5-25.9
	H119V43h13v102.3h24.5V27.5H31.7c-6.8,0-12.2,6.1-12.2,13.7v137.3H183V191.5z M66.4,70.5c-6.3,0-11.5,5.8-11.5,12.9v53.9
	c0,4.5,3.2,8.2,7.1,8.2h57V70.5H66.4z"/>
</svg>
