<?xml version="1.0" encoding="utf-8"?>
<!-- Generator: Adobe Illustrator 22.1.0, SVG Export Plug-In . SVG Version: 6.00 Build 0)  -->
<svg version="1.1" id="Слой_1" xmlns="http://www.w3.org/2000/svg" xmlns:xlink="http://www.w3.org/1999/xlink" x="0px" y="0px"
	 viewBox="0 0 236 237" style="enable-background:new 0 0 236 237;" xml:space="preserve">
<style type="text/css">
	.st0{fill:#FF7300;}
	.st1{fill:#FFFFFF;}
	.st2{fill:#FFFFFF;stroke:#000000;stroke-width:2;stroke-miterlimit:10;}
	.st3{fill:none;stroke:#000000;stroke-width:2;stroke-miterlimit:10;}
	.st4{fill:none;stroke:#000000;stroke-width:2;stroke-linejoin:bevel;stroke-miterlimit:10;}
	.st5{fill:#FF7300;stroke:#000000;stroke-width:0.75;stroke-linejoin:bevel;stroke-miterlimit:10;}
	.st6{fill:#FF7300;stroke:#000000;stroke-width:2;stroke-linejoin:bevel;stroke-miterlimit:10;}
	.st7{stroke:#000000;stroke-width:2;stroke-linejoin:bevel;stroke-miterlimit:10;}
	.st8{fill:none;stroke:#000000;stroke-linejoin:bevel;stroke-miterlimit:10;}
	.st9{fill:none;stroke:#000000;stroke-width:8;stroke-linejoin:bevel;stroke-miterlimit:10;}
	.st10{fill:none;stroke:#000000;stroke-width:3;stroke-linejoin:bevel;stroke-miterlimit:10;}
	.st11{fill:#FF7300;stroke:#000000;stroke-linejoin:bevel;stroke-miterlimit:10;}
	.st12{stroke:#000000;stroke-linejoin:bevel;stroke-miterlimit:10;}
	.st13{stroke:#000000;stroke-width:2;stroke-miterlimit:10;}
	.st14{fill:none;stroke:#000000;stroke-width:5;stroke-linejoin:bevel;stroke-miterlimit:10;}
	.st15{stroke:#000000;stroke-width:3;stroke-linejoin:bevel;stroke-miterlimit:10;}
	.st16{clip-path:url(#SVGID_2_);}
	.st17{fill:#020100;stroke:#000000;stroke-linejoin:bevel;stroke-miterlimit:10;}
	.st18{fill:#FFFFFF;stroke:#000000;stroke-width:2;stroke-linejoin:bevel;stroke-miterlimit:10;}
	.st19{display:none;}
	.st20{display:inline;}
	.st21{fill:#FFFFFF;stroke:#000000;stroke-miterlimit:10;}
	.st22{display:none;fill:#FFFFFF;stroke:#000000;stroke-miterlimit:10;}
</style>
<g id="Слой_1_1_">
	<text transform="matrix(1 0 0 1 276.3511 -352.9648)" style="font-family:'HelveticaNeueCyr-Light'; font-size:72px;">This is</text>
	<rect x="276" y="-344" width="514" height="165"/>
	<path class="st0" d="M376.9-314.3v105.6h-8.2v-51h-52.4v51h-8.4v-105.6h8.4v46h52.4v-46H376.9z"/>
	<path class="st0" d="M406.7-314.3v105.6h-8.4v-105.6H406.7z"/>
	<path class="st0" d="M428.5-314.3H466c8.4,0,15.2,2.5,20.1,7.6c5,5.1,7.4,12.4,7.4,22c0,10.1-2.5,17.8-7.5,23s-11.8,7.9-20.3,7.9
		h-28.9v45.1h-8.4L428.5-314.3L428.5-314.3z M436.8-305.7v43.5h26.6c6.5,0,11.7-1.8,15.7-5.3s6-9,6-16.4c0-7.3-1.8-12.8-5.5-16.4
		s-8.8-5.4-15.4-5.4L436.8-305.7L436.8-305.7z"/>
	<path class="st1" d="M577.6-314.3v105.6h-8.2v-51H517v51h-8.4v-105.6h8.4v46h52.4v-46H577.6z"/>
	<path class="st1" d="M635.1-316.8c12.2,0,22.2,5.1,29.8,15.4c7.7,10.3,11.5,23.7,11.5,40.2c0,16.4-3.8,29.7-11.4,39.8
		c-7.6,10.1-17.6,15.2-30,15.2c-12.3,0-22.2-5.1-29.8-15.3c-7.5-10.2-11.3-23.5-11.3-40.1c0-16.5,3.8-29.9,11.4-40.1
		C612.8-311.7,622.8-316.8,635.1-316.8z M634.9-308.1c-9.8,0-17.7,4.3-23.7,12.8s-9,19.7-9,33.5c0,14.1,3,25.5,9,34
		c6,8.6,13.9,12.8,23.9,12.8c9.9,0,17.9-4.3,23.9-12.8s9-19.7,9-33.7c0-13.9-3-25.2-9.1-33.8C652.9-303.8,644.9-308.1,634.9-308.1z"
		/>
	<path class="st1" d="M693-314.3h37.5c8.4,0,15.2,2.5,20.1,7.6c5,5.1,7.4,12.4,7.4,22c0,10.1-2.5,17.8-7.5,23s-11.8,7.9-20.3,7.9
		h-28.9v45.1H693V-314.3z M701.4-305.7v43.5H728c6.5,0,11.7-1.8,15.7-5.3s6-9,6-16.4c0-7.3-1.8-12.8-5.5-16.4s-8.8-5.4-15.4-5.4
		L701.4-305.7L701.4-305.7z"/>
</g>
<g id="Слой_2_1_">
	<polygon class="st2" points="276,-523 276,-425 478,-425 478,-483 346,-483 310,-557 296,-557 	"/>
	<line class="st3" x1="346" y1="-483" x2="299" y2="-476"/>
	<polyline class="st3" points="539,-470 923,-469.9 959,-442 959,-306 941,-284 886,-267 810,-267 790,-284 790,-344 	"/>
	<polygon class="st3" points="790,-179 1038,-179 1038,-194 790,-206 	"/>
	<polyline class="st3" points="1038,-194 1029.1,-204 995.1,-220 901.8,-251 871.4,-255 858.8,-241 821,-241 809,-255 797,-255 
		790,-206 	"/>
	<polyline class="st3" points="303,-557 322,-599 390,-599 362,-541 336,-521 328,-521 	"/>
	<polyline class="st4" points="322,-599 320,-607 337.5,-624.5 351,-629 441,-609 430.5,-598.5 390,-598.5 	"/>
	<rect x="578" y="-500" class="st3" width="232" height="156"/>
	<polyline class="st5" points="498.5,-483.5 505.5,-479.5 533.5,-479.5 539.5,-483.5 538.5,-475.5 527.5,-469.5 507.5,-469.5 
		501.5,-470.5 498.5,-483.5 	"/>
	<polyline class="st3" points="609,-500 609,-571 780,-571 780,-500 765,-500 765,-566 616,-566 616,-500 	"/>
	<polyline class="st4" points="539,-475.8 528,-469.1 508,-469.1 502,-470.2 499,-478 495,-478 491,-469.1 478,-469.1 	"/>
	<polyline class="st4" points="478,-433.3 500,-433.3 506,-430 526,-430 535,-436.7 536,-444.5 527,-437.8 509,-437.8 	"/>
	<polyline class="st4" points="538,-474 543,-497 533.5,-493 506.5,-493 497,-497 500,-476 	"/>
	<polyline class="st4" points="497,-496 506,-503 535,-503 543,-496 	"/>
	<polyline class="st4" points="507,-447.9 527,-447.9 539,-454.6 538,-445.6 534.6,-443.4 	"/>
	<polyline class="st4" points="504,-459 508,-457.9 528,-457.9 541,-464.6 541,-457.9 539,-454.6 	"/>
	<line class="st3" x1="539" y1="-476" x2="540" y2="-465"/>
	<polygon class="st5" points="498.6,-486.1 506,-482 533,-482 540.5,-485.5 533,-489 506,-489 	"/>
	<line class="st3" x1="810" y1="-267" x2="810" y2="-255"/>
	<line class="st3" x1="871" y1="-255" x2="871" y2="-267"/>
	<polygon class="st3" points="657.9,-460 618.1,-460 590,-431.9 590,-392.1 618.1,-364 657.9,-364 686,-392.1 686,-431.9 	"/>
	<polygon class="st3" points="772.9,-460 733.1,-460 705,-431.9 705,-392.1 733.1,-364 772.9,-364 801,-392.1 801,-431.9 	"/>
	<circle class="st6" cx="638" cy="-412" r="10"/>
	<circle class="st7" cx="753" cy="-412" r="10"/>
	<polygon class="st7" points="578,-470 810,-470 810,-500 583.8,-500 578,-500 	"/>
	<polygon class="st7" points="810,-267 810,-255 821,-241 859,-241 871,-255 871,-267 	"/>
	<line class="st8" x1="478" y1="-392" x2="578" y2="-392"/>
	<polyline class="st8" points="810,-392 831,-392 831,-267 845,-267 845,-406 810,-406 	"/>
	<line class="st8" x1="578" y1="-402" x2="478" y2="-402"/>
	<polyline class="st9" points="861,-267 861,-430 810,-430 	"/>
	<polyline class="st10" points="886,-267 886,-449 810,-449 	"/>
	<line class="st9" x1="578" y1="-426" x2="543" y2="-426"/>
	<line class="st10" x1="578" y1="-449" x2="552.5" y2="-448.5"/>
	<polygon class="st11" points="868.5,-202.5 914.5,-246.5 926.5,-241.5 886.5,-202.5 	"/>
	<polygon points="919,-199 907,-200 945,-237 954,-233 	"/>
	<polygon points="947,-199 941,-199 971.1,-228.9 975,-227 	"/>
	<polygon class="st12" points="793.5,-227.5 815.5,-238.5 802.5,-255.5 797.5,-255.5 	"/>
	<polyline class="st4" points="815.5,-232.5 861.5,-232.5 876.5,-249.5 	"/>
	<polygon class="st7" points="1009,-214 997,-209 992,-196 1038,-194 1029,-204 	"/>
	<polygon class="st13" points="923,-470 941,-284 959,-306 959,-442 	"/>
	<polygon class="st7" points="780,-500 780,-571 789,-561 789,-490 	"/>
	<polygon class="st7" points="810,-500 810,-500 820,-490 820,-344 810,-344 	"/>
	<polygon class="st13" points="763,-460 793,-430 793,-395 762,-364 773,-364 801,-392 801,-432 773,-460 	"/>
	<polyline class="st4" points="645,-460 676,-430 676,-392 646,-364 	"/>
	<rect x="465" y="-483" class="st7" width="13" height="58"/>
	<polygon class="st7" points="276,-437 468,-449 468,-425 276,-425 	"/>
	<polygon class="st4" points="451,-483 451,-443 437,-441 437,-483 	"/>
	<line class="st14" x1="423" y1="-482" x2="423" y2="-441"/>
	<polygon points="302.5,-557.5 330,-480 345.5,-483.5 311,-556 	"/>
	<polyline class="st15" points="378,-575 381,-560 372,-560 	"/>
	<g>
		<polygon points="361.9,-541 351.9,-542 351.2,-542.4 347.6,-547.7 348.4,-548.3 352.8,-543.6 352.1,-544 362.1,-543 		"/>
	</g>
	<polygon class="st6" points="379.8,-586 370.1,-564 343.2,-564 351.7,-586 	"/>
	<g>
		<g>
			<defs>
				<polygon id="SVGID_1_" points="379.8,-586 370.1,-564 343.2,-564 351.7,-586 				"/>
			</defs>
			<clipPath id="SVGID_2_">
				<use xlink:href="#SVGID_1_"  style="overflow:visible;"/>
			</clipPath>
			<g class="st16">
				
					<rect x="338.5" y="-589.5" transform="matrix(0.6912 -0.7227 0.7227 0.6912 523.0528 87.9929)" class="st8" width="52" height="43"/>
				<line class="st8" x1="370" y1="-598.7" x2="334.1" y2="-561.1"/>
				<line class="st8" x1="373.1" y1="-595.7" x2="337.2" y2="-558.1"/>
				<line class="st8" x1="376.3" y1="-592.7" x2="340.3" y2="-555.2"/>
				<line class="st8" x1="379.4" y1="-589.8" x2="343.4" y2="-552.2"/>
				<line class="st8" x1="382.5" y1="-586.8" x2="346.5" y2="-549.2"/>
				<line class="st8" x1="385.6" y1="-583.8" x2="349.6" y2="-546.2"/>
				<line class="st8" x1="388.7" y1="-580.8" x2="352.7" y2="-543.3"/>
				<line class="st8" x1="391.8" y1="-577.9" x2="355.9" y2="-540.3"/>
				<line class="st8" x1="394.9" y1="-574.9" x2="359" y2="-537.3"/>
			</g>
		</g>
	</g>
	<polygon class="st17" points="353.5,-598.5 337.5,-570.5 305.5,-563.5 322.5,-598.5 	"/>
	<polygon class="st18" points="348,-577 319,-581 315,-574 311,-575 316,-586 353,-586 351,-585 	"/>
	<polyline class="st7" points="389,-597 389.6,-598.5 399,-618 439,-609 430,-599 	"/>
	
		<text transform="matrix(1 0 0 1 -64 -483)" style="fill:#FF6D00; font-family:'HelveticaNeueCyr-Thin'; font-size:107px; letter-spacing:1;">What’s</text>
	<text transform="matrix(1 0 0 1 -22 -353)" style="font-family:'HelveticaNeueCyr-Medium'; font-size:141px; letter-spacing:2;">UP?</text>
	<g class="st19">
		<g class="st20">
			<path class="st0" d="M118.5,233.5c-62.9,0-114-51.1-114-114s51.1-114,114-114s114,51.1,114,114S181.4,233.5,118.5,233.5z
				 M118.5,25.5c-51.8,0-94,42.2-94,94s42.2,94,94,94s94-42.2,94-94S170.3,25.5,118.5,25.5z"/>
		</g>
		<path class="st20" d="M118.5,6c30.3,0,58.8,11.8,80.3,33.2c21.4,21.4,33.2,49.9,33.2,80.3s-11.8,58.8-33.2,80.3
			c-21.4,21.4-49.9,33.2-80.3,33.2s-58.8-11.8-80.3-33.2C16.8,178.3,5,149.8,5,119.5s11.8-58.8,33.2-80.3C59.7,17.8,88.2,6,118.5,6
			 M118.5,214c52.1,0,94.5-42.4,94.5-94.5S170.6,25,118.5,25S24,67.4,24,119.5S66.4,214,118.5,214 M118.5,5C55.3,5,4,56.3,4,119.5
			S55.3,234,118.5,234S233,182.7,233,119.5S181.7,5,118.5,5L118.5,5z M118.5,213C66.9,213,25,171.1,25,119.5S66.9,26,118.5,26
			S212,67.9,212,119.5S170.1,213,118.5,213L118.5,213z"/>
	</g>
	<path class="st0" d="M121.9,98.9h-3.4c-1.6,0-3-0.9-3.6-2.3L92,44c-1-2.2,0.3-4.8,2.7-5.4l23-5.4c0.6-0.1,1.2-0.1,1.8,0l23.4,5.4
		c2.4,0.6,3.7,3.1,2.7,5.4l-23,52.5c-0.6,1.4-2,2.3-3.6,2.3h-3.4"/>
	<path class="st21" d="M117.6,204l-22.7-5.5c-3.2-0.8-4.8-4.2-3.5-7.2l23.9-53.2l5.9,0.1 M117.2,204l22.8-5c3.2-0.7,4.9-4.1,3.6-7.1
		l-22.9-53.7l-5.9-0.1"/>
	<path class="st21" d="M32.5,118.1L38,95.4c0.8-3.2,4.2-4.8,7.2-3.5l53.2,23.9l-0.1,5.9 M32.5,117.7l5,22.8c0.7,3.2,4.1,4.9,7.1,3.6
		l53.7-22.9l0.1-5.9"/>
	<path class="st21" d="M203.5,118.9l-5.5,22.7c-0.8,3.2-4.2,4.8-7.2,3.5l-53.2-23.9l0.1-5.9 M203.5,119.3l-5-22.8
		c-0.7-3.2-4.1-4.9-7.1-3.6l-53.7,22.9l-0.1,5.9"/>
	<path class="st21" d="M178.2,179.3l-19.9,12.2c-2.8,1.7-6.4,0.5-7.5-2.6L130,134.3l4.2-4.1 M177.9,179.5l12.6-19.7
		c1.7-2.7,0.6-6.4-2.4-7.6L134,130.4l-4.2,4.1"/>
	<path class="st21" d="M102,128.7l4.2,4.1l-20.7,54.6c-1.2,3-4.8,4.3-7.5,2.6l-20-12.2 M106.5,133.1l-4.2-4.1l-54.1,21.8
		c-3,1.2-4.2,4.9-2.4,7.6L58.3,178"/>
	<path class="st21" d="M58,59.2L77.9,47c2.8-1.7,6.4-0.5,7.5,2.6l20.7,54.6l-4.2,4.1 M58.3,59L45.7,78.7c-1.7,2.7-0.6,6.4,2.4,7.6
		l54.1,21.8l4.2-4.1"/>
	<path class="st21" d="M134,108.3l-4.2-4.1l20.7-54.6c1.2-3,4.8-4.3,7.5-2.6l20,12.2 M129.5,103.9l4.2,4.1l54.1-21.8
		c3-1.2,4.2-4.9,2.4-7.6L177.7,59"/>
	<g>
		<path d="M118.5,17C175,17,221,63,221,119.5S175,222,118.5,222S16,176,16,119.5S62,17,118.5,17 M118.5,14C60.2,14,13,61.2,13,119.5
			S60.2,225,118.5,225S224,177.8,224,119.5S176.8,14,118.5,14L118.5,14z"/>
	</g>
</g>
<rect x="425" y="39" class="st22" width="167.5" height="167.5"/>
<path class="st0" d="M597,208.5H420.5V58.2c0-14.7,11.3-26.7,25.2-26.7h137.8v143.8H476c-11.1,0-20.1-9.5-20.1-21.2v-53.9
	c0-14.3,11-25.9,24.5-25.9H533V60h13v102.3h24.5V44.5H445.7c-6.8,0-12.2,6.1-12.2,13.7v137.3H597V208.5z M480.4,87.5
	c-6.3,0-11.5,5.8-11.5,12.9v53.9c0,4.5,3.2,8.2,7.1,8.2h57V87.5H480.4z"/>
</svg>
