<svg xmlns="http://www.w3.org/2000/svg" xmlns:xlink="http://www.w3.org/1999/xlink" viewBox="0 0 764 451.98"><defs><style>.cls-1,.cls-12,.cls-13,.cls-14,.cls-17,.cls-6,.cls-7{fill:none;}.cls-2{font-size:72px;font-family:HelveticaNeueCyr-Light, HelveticaNeueCyr;}.cls-15,.cls-3,.cls-8,.cls-9{fill:#ff7300;}.cls-21,.cls-4,.cls-5{fill:#fff;}.cls-10,.cls-11,.cls-12,.cls-13,.cls-14,.cls-15,.cls-16,.cls-17,.cls-18,.cls-20,.cls-21,.cls-5,.cls-6,.cls-7,.cls-8,.cls-9{stroke:#000;}.cls-16,.cls-5,.cls-6{stroke-miterlimit:10;}.cls-10,.cls-16,.cls-21,.cls-5,.cls-6,.cls-7,.cls-9{stroke-width:2px;}.cls-10,.cls-11,.cls-12,.cls-13,.cls-14,.cls-15,.cls-17,.cls-18,.cls-20,.cls-21,.cls-7,.cls-8,.cls-9{stroke-linejoin:bevel;}.cls-8{stroke-width:0.75px;}.cls-13{stroke-width:8px;}.cls-14,.cls-18{stroke-width:3px;}.cls-17{stroke-width:5px;}.cls-19{clip-path:url(#clip-path);}.cls-20{fill:#020100;}</style><clipPath id="clip-path" transform="translate(-8 -9.02)"><polygon class="cls-1" points="112.83 53 103.06 75 76.17 75 84.72 53 112.83 53"/></clipPath></defs><title>hipHop</title><g id="Слой_1" data-name="Слой 1"><text class="cls-2" transform="translate(1.35 277.01)">This is</text><rect x="1" y="285.98" width="514" height="165"/><path class="cls-3" d="M109.93,324.68V430.32h-8.24v-51H49.27v51H40.9V324.68h8.37v46h52.42v-46Z" transform="translate(-8 -9.02)"/><path class="cls-3" d="M139.7,324.68V430.32h-8.36V324.68Z" transform="translate(-8 -9.02)"/><path class="cls-3" d="M161.48,324.68H199q12.66,0,20.11,7.64t7.45,22q0,15.12-7.51,23t-20.3,7.87H169.85v45.1h-8.37Zm8.37,8.61v43.47h26.57q9.72,0,15.75-5.27t6-16.39q0-11-5.54-16.4t-15.38-5.41Z" transform="translate(-8 -9.02)"/><path class="cls-4" d="M310.6,324.68V430.32h-8.24v-51H249.94v51h-8.36V324.68h8.36v46h52.42v-46Z" transform="translate(-8 -9.02)"/><path class="cls-4" d="M368.06,322.16q18.33,0,29.83,15.43T409.4,377.8q0,24.63-11.44,39.83t-30,15.21q-18.45,0-29.77-15.28T326.84,377.5q0-24.78,11.38-40.06T368.06,322.16Zm-.13,8.75q-14.64,0-23.68,12.76t-9,33.53q0,21.23,9,34.05t23.87,12.84q14.88,0,23.93-12.76t9-33.68q0-20.92-9.1-33.83T367.93,330.91Z" transform="translate(-8 -9.02)"/><path class="cls-4" d="M426,324.68h37.53q12.66,0,20.11,7.64t7.45,22q0,15.12-7.51,23t-20.3,7.87H434.37v45.1H426Zm8.36,8.61v43.47H461q9.72,0,15.75-5.27t6-16.39q0-11-5.54-16.4t-15.38-5.41Z" transform="translate(-8 -9.02)"/></g><g id="Слой_2" data-name="Слой 2"><polygon class="cls-5" points="1 106.98 1 204.98 203 204.98 203 146.98 71 146.98 35 72.98 21 72.98 1 106.98"/><line class="cls-5" x1="71" y1="146.98" x2="24" y2="153.98"/><polyline class="cls-6" points="264 159.98 648 160.08 684 187.98 684 323.98 666 345.98 611 362.98 535 362.98 515 346 515 285.98"/><polygon class="cls-6" points="515 450.98 763 450.98 763 435.98 515 423.98 515 450.98"/><polyline class="cls-6" points="763 435.98 754.12 425.98 720.06 409.98 626.78 378.98 596.43 374.98 583.85 388.98 546 388.98 534 374.98 522 374.98 515 423.98"/><polyline class="cls-6" points="28 72.98 47 30.98 115 30.98 87 88.98 61 108.98 53 108.98"/><polyline class="cls-7" points="47 30.98 45 22.98 62.5 5.48 76 0.98 166 20.98 155.5 31.48 115 31.48"/><rect class="cls-6" x="303" y="129.98" width="232" height="156"/><polyline class="cls-8" points="223.5 146.48 230.5 150.48 258.5 150.48 264.5 146.48 263.5 154.48 252.5 160.48 232.5 160.48 226.5 159.48 223.5 146.48"/><polyline class="cls-6" points="334 129.98 334 58.98 505 58.98 505 129.98 490 129.98 490 63.98 341 63.98 341 129.98"/><polyline class="cls-7" points="264 154.21 253 160.91 233 160.91 227 159.79 224 151.98 220 151.98 216 160.91 203 160.91"/><polyline class="cls-7" points="203 196.63 225 196.63 231 199.98 251 199.98 260 193.28 261 185.47 252 192.16 234 192.16"/><polyline class="cls-7" points="263 155.98 268 132.98 258.5 136.98 231.5 136.98 222 132.98 225 153.98"/><polyline class="cls-7" points="222 133.98 231 126.98 260 126.98 268 133.98"/><polyline class="cls-7" points="232 182.12 252 182.12 264 175.42 263 184.35 259.56 186.54"/><polyline class="cls-7" points="229 170.95 233 172.07 253 172.07 266 165.37 266 172.07 264 175.42"/><line class="cls-6" x1="264" y1="153.98" x2="265" y2="164.98"/><polygon class="cls-8" points="223.56 143.84 231 147.98 258 147.98 265.5 144.48 258 140.98 231 140.98 223.56 143.84"/><line class="cls-6" x1="535" y1="362.98" x2="535" y2="374.98"/><line class="cls-6" x1="596" y1="374.98" x2="596" y2="362.98"/><polygon class="cls-6" points="382.88 169.98 343.12 169.98 315 198.09 315 237.86 343.12 265.98 382.88 265.98 411 237.86 411 198.09 382.88 169.98"/><polygon class="cls-6" points="497.88 169.98 458.12 169.98 430 198.09 430 237.86 458.12 265.98 497.88 265.98 526 237.86 526 198.09 497.88 169.98"/><circle class="cls-9" cx="363" cy="217.98" r="10"/><circle class="cls-10" cx="478" cy="217.98" r="10"/><polygon class="cls-10" points="303 159.98 535 159.98 535 129.98 308.75 129.98 303 129.98 303 159.98"/><polygon class="cls-10" points="535 362.98 535 374.98 546 388.98 584 388.98 596 374.98 596 362.98 535 362.98"/><line class="cls-11" x1="203" y1="237.98" x2="303" y2="237.98"/><polyline class="cls-12" points="535 237.98 556 237.98 556 362.98 570 362.98 570 223.98 535 223.98"/><line class="cls-12" x1="303" y1="227.98" x2="203" y2="227.98"/><polyline class="cls-13" points="586 362.98 586 199.98 535 199.98"/><polyline class="cls-14" points="611 362.98 611 180.98 535 180.98"/><line class="cls-13" x1="303" y1="203.98" x2="268" y2="203.98"/><line class="cls-14" x1="303" y1="180.98" x2="277.5" y2="181.48"/><polygon class="cls-15" points="593.5 427.48 639.5 383.48 651.5 388.48 611.5 427.48 593.5 427.48"/><polygon points="644 430.98 632 429.98 670 392.98 679 396.98 644 430.98"/><polygon points="672 430.98 666 430.98 696.09 401.06 700 402.98 672 430.98"/><polygon class="cls-11" points="518.5 402.48 540.5 391.48 527.5 374.48 522.5 374.48 518.5 402.48"/><polyline class="cls-7" points="540.5 397.48 586.5 397.48 601.5 380.48"/><polygon class="cls-10" points="734 415.98 722 420.98 717 433.98 763 435.98 754 425.98 734 415.98"/><polygon class="cls-16" points="648 159.98 666 345.98 684 323.98 684 187.98 648 159.98"/><polygon class="cls-10" points="505 129.98 505 58.98 514 68.98 514 139.98 505 129.98"/><polygon class="cls-10" points="535 129.98 535 129.98 545 139.98 545 285.98 535 285.98 535 129.98"/><polygon class="cls-16" points="488 169.98 518 199.98 518 234.98 487 265.98 498 265.98 526 237.98 526 197.98 498 169.98 488 169.98"/><polyline class="cls-7" points="370 169.98 401 199.98 401 237.98 371 265.98"/><rect class="cls-10" x="190" y="146.98" width="13" height="58"/><polygon class="cls-10" points="1 192.98 193 180.98 193 204.98 1 204.98 1 192.98"/><polygon class="cls-7" points="176 146.98 176 186.98 162 188.98 162 146.98 176 146.98"/><line class="cls-17" x1="148" y1="147.98" x2="148" y2="188.98"/><polygon points="27.5 72.48 55 149.98 70.5 146.48 36 73.98 27.5 72.48"/><polyline class="cls-18" points="103 54.98 106 69.98 97 69.98"/><polygon points="86.9 88.97 76.9 87.97 76.22 87.6 72.57 82.32 73.43 81.63 77.78 86.35 77.1 85.98 87.1 86.98 86.9 88.97"/><polygon class="cls-9" points="104.83 43.98 95.06 65.98 68.17 65.98 76.72 43.98 104.83 43.98"/><g class="cls-19"><rect class="cls-12" x="71.5" y="49.5" width="52" height="43" transform="translate(-29.2 83.36) rotate(-46.28)"/><line class="cls-12" x1="95.04" y1="31.3" x2="59.1" y2="68.88"/><line class="cls-12" x1="98.15" y1="34.27" x2="62.21" y2="71.85"/><line class="cls-12" x1="101.26" y1="37.24" x2="65.31" y2="74.82"/><line class="cls-12" x1="104.36" y1="40.21" x2="68.42" y2="77.79"/><line class="cls-12" x1="107.47" y1="43.19" x2="71.53" y2="80.77"/><line class="cls-12" x1="110.58" y1="46.16" x2="74.64" y2="83.74"/><line class="cls-12" x1="113.69" y1="49.13" x2="77.74" y2="86.71"/><line class="cls-12" x1="116.79" y1="52.1" x2="80.85" y2="89.68"/><line class="cls-12" x1="119.9" y1="55.08" x2="83.96" y2="92.65"/></g><polygon class="cls-20" points="78.5 31.48 62.5 59.48 30.5 66.48 47.5 31.48 78.5 31.48"/><polygon class="cls-21" points="73 52.98 44 48.98 40 55.98 36 54.98 41 43.98 78 43.98 76 44.98 73 52.98"/><polyline class="cls-10" points="114 32.98 114.61 31.48 124 11.98 164 20.98 155 30.98"/></g></svg>