<svg xmlns="http://www.w3.org/2000/svg" viewBox="0 0 712.96 430.98"><defs><style>.cls-1,.cls-3,.cls-5,.cls-6{fill:#fff;}.cls-1,.cls-4,.cls-6,.cls-7{stroke:#000;}.cls-1,.cls-2,.cls-3,.cls-4,.cls-6,.cls-7{stroke-miterlimit:10;}.cls-1{stroke-width:6px;}.cls-2,.cls-3{stroke:#231f20;}.cls-7{stroke-width:5px;}</style></defs><title>Ресурс 1</title><g id="Слой_2" data-name="Слой 2"><g id="Слой_3" data-name="Слой 3"><rect class="cls-1" x="44" y="27.5" width="665.97" height="400.48"/><rect class="cls-2" x="0.5" y="0.5" width="664.47" height="386.98"/><rect class="cls-3" x="80.84" y="65" width="483.9" height="40.5"/><path class="cls-3" d="M205.53,145H330.22c0,61.3-56.29,111.74-124.69,111.74S80.84,206.34,80.84,145c0-.39,0-.79,0-1.18Z"/><path class="cls-4" d="M205.53,138.63h81.18c0,39.9-36.65,72.74-81.18,72.74s-81.17-32.84-81.17-72.74v-.77Z"/><path class="cls-5" d="M565.59,194.29V323.86c-68.41,0-124.69-58.49-124.69-129.57S497.18,64.71,565.59,64.71h1.31Z"/><path class="cls-4" d="M565.85,197.6v87.87c-44.53,0-81.18-41.59-81.18-87.87s37.27-90.77,81.8-90.77c.29,0,0,0,.23,6.42Z"/><rect class="cls-6" x="357.61" y="143.86" width="53.51" height="180"/><rect class="cls-6" x="177.91" y="279.49" width="55.23" height="42.66"/><rect class="cls-6" x="520.11" y="174.76" width="43.63" height="37.23"/><line class="cls-1" x1="70.86" y1="85.25" x2="583.86" y2="85.25"/><line class="cls-7" x1="205.53" y1="174.76" x2="205.53" y2="364.45"/><line class="cls-7" x1="384.37" y1="124.45" x2="384.37" y2="352.45"/><line class="cls-7" x1="506.86" y1="193.37" x2="591.86" y2="193.37"/></g></g></svg>